<svg id="svg" version="1.1" xmlns="http://www.w3.org/2000/svg" xmlns:xlink="http://www.w3.org/1999/xlink" width="400" height="73.61963190184049" viewBox="0, 0, 400,73.61963190184049"><g id="svgg"><path id="path0" d="M7.362 4.962 C 3.876 5.989,2.645 11.452,5.900 11.452 C 6.832 11.452,8.615 13.301,8.976 14.642 C 9.243 15.637,9.254 21.213,9.008 30.918 C 8.574 48.012,8.458 48.641,5.510 49.945 C 1.749 51.609,1.755 55.123,5.521 56.640 C 7.298 57.354,40.291 57.207,43.149 56.472 C 54.903 53.447,61.759 43.825,61.759 30.353 C 61.759 17.351,55.947 9.198,44.172 5.683 C 40.683 4.641,10.458 4.049,7.362 4.962 M118.566 5.501 C 110.566 7.161,106.756 11.701,110.459 15.160 C 114.647 19.073,128.530 15.873,129.487 10.774 C 130.299 6.443,125.409 4.082,118.566 5.501 M152.358 5.377 C 138.476 7.156,132.203 12.281,138.487 16.711 C 141.361 18.737,141.607 19.690,141.825 29.652 C 142.149 44.495,141.389 49.581,138.677 50.705 C 136.297 51.690,136.530 54.773,139.083 56.096 C 144.100 58.694,160.446 58.049,161.975 55.192 C 162.952 53.367,162.468 51.599,160.750 50.723 C 159.858 50.268,158.916 49.500,158.657 49.016 C 158.176 48.118,158.398 17.726,158.939 10.351 C 159.174 7.145,159.139 6.955,158.139 5.954 C 157.022 4.838,156.768 4.812,152.358 5.377 M361.759 5.190 C 353.436 6.268,347.449 8.272,345.450 10.647 C 343.958 12.421,344.078 12.941,346.490 15.158 C 349.128 17.584,349.215 18.071,349.251 30.675 C 349.292 44.936,348.694 48.388,345.755 50.848 C 341.193 54.667,345.969 57.464,357.055 57.464 C 367.353 57.464,370.649 55.378,367.178 51.059 L 365.849 49.405 365.849 40.867 L 365.849 32.329 366.905 31.273 C 368.154 30.024,370.794 29.794,372.330 30.801 C 375.633 32.965,376.235 47.435,373.193 51.557 C 370.122 55.721,373.153 57.467,383.436 57.459 C 394.016 57.451,397.599 55.494,394.107 51.629 C 392.030 49.330,391.945 48.909,391.641 39.467 C 391.125 23.459,389.078 19.955,379.870 19.324 C 375.480 19.023,373.548 19.797,370.274 23.166 C 367.533 25.988,367.273 26.110,366.239 25.077 C 365.615 24.452,365.577 23.526,365.844 15.333 C 366.202 4.354,366.302 4.601,361.759 5.190 M33.988 13.144 C 44.415 16.636,45.811 44.174,35.791 48.726 C 33.510 49.762,29.455 49.752,28.164 48.707 L 27.198 47.926 27.083 31.133 C 26.970 14.719,26.986 14.322,27.799 13.510 C 28.758 12.551,31.697 12.377,33.988 13.144 M80.619 19.855 C 71.139 21.911,65.187 27.200,67.497 31.515 C 69.445 35.155,74.556 33.762,78.384 28.547 C 82.109 23.472,85.890 25.244,85.890 32.065 C 85.890 35.324,85.773 35.411,80.982 35.727 C 70.676 36.407,64.846 40.638,64.873 47.419 C 64.907 56.183,75.039 60.466,84.377 55.665 L 87.876 53.867 89.745 55.512 C 93.591 58.897,99.673 58.239,103.936 53.976 C 106.711 51.202,107.273 47.780,104.998 47.518 C 102.795 47.264,102.491 46.112,102.220 36.977 C 101.984 29.059,101.926 28.609,100.863 26.436 C 98.030 20.646,89.602 17.906,80.619 19.855 M318.390 20.024 C 311.913 22.151,308.690 28.342,310.613 34.959 C 311.523 38.088,314.602 41.176,319.535 43.906 C 324.215 46.495,325.322 48.060,323.587 49.630 C 321.699 51.339,319.994 50.651,315.734 46.460 C 309.634 40.458,306.153 43.948,309.984 52.224 C 312.372 57.383,312.259 57.350,327.812 57.418 C 336.053 57.454,341.693 52.820,341.693 46.012 C 341.693 40.957,339.153 37.884,331.791 34.035 C 325.888 30.949,324.437 28.836,327.045 27.127 C 328.423 26.225,329.608 26.665,332.584 29.186 C 336.690 32.664,338.449 33.148,340.517 31.369 C 343.896 28.463,338.700 18.681,334.187 19.450 C 332.032 19.817,331.055 19.819,325.153 19.468 C 321.512 19.252,320.484 19.336,318.390 20.024 M122.872 20.251 C 110.095 22.591,104.946 26.706,110.628 30.036 C 112.956 31.401,113.090 31.902,113.081 39.264 C 113.072 47.117,112.884 47.890,110.404 50.293 C 105.429 55.113,110.244 57.918,122.904 57.578 C 133.154 57.302,137.385 54.007,132.596 50.029 C 130.187 48.028,130.066 47.242,130.064 33.527 C 130.061 18.194,130.425 18.867,122.872 20.251 M171.670 20.055 C 166.177 20.910,163.599 22.343,163.599 24.543 C 163.599 26.373,163.993 26.970,165.797 27.877 C 168.488 29.229,168.496 29.243,175.055 42.980 C 181.928 57.373,182.430 58.963,180.770 61.066 C 179.233 63.013,177.929 62.492,176.690 59.436 C 173.470 51.499,163.807 53.579,164.510 62.057 C 165.182 70.160,178.795 72.686,186.956 66.223 C 190.837 63.149,193.607 57.890,198.573 44.172 C 203.601 30.280,204.365 28.920,208.237 26.965 C 214.427 23.840,211.753 19.836,203.476 19.836 C 195.020 19.836,192.128 22.176,195.135 26.585 C 196.936 29.225,195.896 34.686,193.332 36.058 C 191.302 37.145,187.357 30.108,188.467 27.381 C 189.842 24.001,189.857 23.931,189.422 22.818 C 188.381 20.150,179.725 18.803,171.670 20.055 M225.153 20.289 C 214.434 22.203,209.282 26.839,214.613 29.774 C 216.988 31.082,217.350 32.558,217.039 39.673 C 216.739 46.525,216.431 47.583,214.116 49.709 C 210.949 52.616,211.910 55.555,216.481 56.942 C 218.944 57.690,233.491 57.656,236.105 56.897 C 241.134 55.436,241.485 51.398,236.763 49.328 C 233.895 48.071,233.910 48.111,233.650 40.695 C 233.448 34.948,233.487 34.496,234.270 33.538 L 235.106 32.515 236.265 33.447 C 241.912 37.988,247.216 37.884,250.483 33.170 C 257.027 23.727,244.693 14.541,237.182 23.264 C 234.796 26.033,233.538 25.809,233.538 22.613 C 233.538 19.596,231.775 19.107,225.153 20.289 M266.130 20.078 C 256.267 21.120,252.386 24.312,257.118 27.490 C 259.531 29.111,259.775 30.115,260.131 39.877 C 260.547 51.308,261.533 54.043,266.030 56.244 C 270.541 58.451,275.539 58.158,280.372 55.404 C 284.539 53.030,285.481 53.072,285.481 55.634 C 285.481 58.202,292.694 58.363,300.345 55.965 C 304.963 54.518,307.291 51.460,305.156 49.650 C 304.730 49.289,303.805 48.471,303.102 47.832 L 301.823 46.671 301.853 34.339 C 301.891 18.644,302.203 19.263,294.537 19.794 C 282.887 20.600,277.364 24.129,282.764 27.315 C 284.873 28.559,285.167 30.020,285.005 38.450 C 284.829 47.596,283.463 49.889,279.240 48.125 C 276.704 47.065,276.483 45.825,276.483 32.685 C 276.483 25.560,276.322 20.914,276.059 20.423 C 275.584 19.535,272.343 19.422,266.130 20.078 M85.662 41.809 C 86.828 43.473,86.174 48.271,84.672 49.075 C 80.938 51.073,78.367 45.477,81.554 42.290 C 83.192 40.652,84.726 40.472,85.662 41.809 " stroke="none" fill="#fff" fill-rule="evenodd"></path></g></svg>