<svg id="svg" xmlns="http://www.w3.org/2000/svg" xmlns:xlink="http://www.w3.org/1999/xlink" width="400" height="94.36619718309859" viewBox="0, 0, 400,94.36619718309859"><g id="svgg"><path id="path0" d="M20.564 22.534 C 13.978 23.500,12.081 26.933,16.570 29.766 C 19.110 31.370,19.197 31.776,19.135 41.725 C 19.042 56.689,18.246 61.474,15.710 62.311 C 13.239 63.126,13.414 65.770,16.024 67.077 C 18.252 68.194,26.609 68.116,28.963 66.957 C 31.574 65.671,31.778 63.452,29.407 62.128 C 27.291 60.946,27.047 59.999,27.177 53.478 C 27.366 44.076,28.374 44.398,33.296 55.429 C 39.200 68.661,39.905 68.994,43.653 60.313 C 49.542 46.673,51.779 44.375,52.051 51.685 C 52.270 57.558,51.723 60.070,49.852 61.788 C 45.567 65.722,48.891 67.784,59.507 67.778 C 70.454 67.772,73.691 65.601,69.104 61.343 C 67.602 59.949,67.283 59.429,67.109 58.099 C 66.683 54.822,66.372 43.322,66.594 39.085 C 66.964 32.040,67.096 31.519,69.061 29.349 C 72.939 25.067,70.093 22.398,61.620 22.372 C 54.324 22.349,53.611 22.944,48.544 33.286 C 43.139 44.318,43.073 44.307,36.562 31.320 C 31.929 22.076,30.192 21.122,20.564 22.534 M304.930 23.112 C 293.595 24.833,288.962 28.806,295.348 31.329 C 296.746 31.881,297.185 32.618,297.178 34.396 C 297.168 36.755,296.916 36.857,293.706 35.797 C 277.047 30.291,265.755 52.552,279.160 64.476 C 284.206 68.965,289.286 69.079,296.235 64.861 C 297.366 64.174,298.239 64.844,298.239 66.397 C 298.239 69.728,313.159 67.245,314.392 63.710 C 314.861 62.365,314.423 61.154,313.172 60.334 C 311.298 59.106,311.268 58.795,311.268 40.840 L 311.268 24.264 310.403 23.399 C 309.424 22.421,309.469 22.423,304.930 23.112 M88.028 35.386 C 76.583 37.950,69.960 49.354,74.376 58.892 C 81.592 74.476,110.596 68.501,110.707 51.408 C 110.780 40.225,100.102 32.681,88.028 35.386 M128.873 35.241 C 116.656 37.590,109.930 49.055,114.741 59.331 C 119.046 68.526,133.288 70.805,143.600 63.949 C 159.249 53.546,147.975 31.569,128.873 35.241 M210.983 35.572 C 190.605 40.911,195.586 69.276,216.652 67.861 C 223.807 67.381,229.577 63.727,229.577 59.678 C 229.577 56.691,227.814 55.568,224.953 56.733 C 217.250 59.867,208.904 52.377,212.452 45.515 C 214.502 41.550,217.602 42.053,219.738 46.697 C 222.214 52.082,228.241 52.213,230.501 46.930 C 233.712 39.426,222.090 32.662,210.983 35.572 M247.913 35.406 C 228.913 39.526,227.818 64.164,246.479 67.674 C 249.238 68.193,254.651 67.806,257.394 66.894 C 280.166 59.322,271.428 30.306,247.913 35.406 M329.497 35.407 C 312.298 39.576,312.330 64.335,329.539 67.598 C 339.381 69.465,351.524 62.721,347.510 57.618 C 346.556 56.405,345.643 56.446,342.979 57.820 C 338.076 60.349,332.321 59.002,330.635 54.932 C 329.762 52.826,329.795 52.817,338.739 52.817 C 349.284 52.817,350.030 52.429,349.555 47.188 C 348.788 38.729,339.149 33.067,329.497 35.407 M164.085 36.102 C 153.632 38.775,150.979 41.090,154.577 44.398 L 156.338 46.017 156.330 52.146 C 156.320 59.472,156.094 60.665,154.422 62.242 C 150.963 65.506,154.484 67.958,162.629 67.958 C 171.748 67.958,174.470 66.243,172.233 61.905 L 171.127 59.760 171.127 53.876 C 171.127 46.139,171.718 44.718,174.935 44.718 C 178.199 44.718,179.502 48.579,178.834 56.271 C 178.474 60.421,178.074 61.770,176.704 63.465 C 175.430 65.041,176.415 66.679,179.106 67.461 C 181.385 68.124,190.607 68.002,193.005 67.277 C 195.953 66.387,197.118 64.034,195.386 62.467 C 193.774 61.008,193.550 59.993,193.098 52.113 C 192.367 39.341,190.347 35.923,183.175 35.322 C 179.318 34.999,177.466 35.609,174.834 38.071 C 171.931 40.787,170.775 40.755,170.775 37.958 C 170.775 35.125,169.397 34.743,164.085 36.102 M362.500 35.778 C 353.323 37.417,348.832 41.381,353.314 43.886 C 355.374 45.038,355.462 45.354,355.419 51.408 C 355.370 58.168,355.090 59.281,353.001 61.027 C 349.833 63.676,351.043 66.380,355.877 67.456 C 359.515 68.265,370.186 68.030,372.454 67.090 C 376.361 65.471,376.374 62.530,372.481 60.808 C 370.007 59.714,369.999 59.691,369.802 53.147 C 369.592 46.155,370.093 45.238,372.798 47.663 C 378.537 52.807,386.906 48.395,385.517 40.958 C 384.390 34.925,377.440 33.252,373.161 37.984 C 370.759 40.641,369.718 40.665,369.718 38.063 C 369.718 35.158,368.367 34.730,362.500 35.778 M335.549 41.014 C 338.246 42.408,338.133 46.262,335.383 46.674 C 331.704 47.226,329.688 46.280,330.088 44.190 C 330.635 41.329,333.235 39.817,335.549 41.014 M295.664 42.694 C 298.036 45.315,297.740 56.870,295.236 59.373 C 290.484 64.125,286.358 51.833,290.178 44.301 C 291.418 41.857,294.176 41.048,295.664 42.694 M92.778 43.412 C 96.292 46.926,97.391 59.333,94.241 59.936 C 91.001 60.555,88.422 55.583,87.815 47.547 L 87.578 44.410 88.656 43.332 C 90.088 41.900,91.290 41.923,92.778 43.412 M132.938 43.478 C 135.546 46.243,137.403 56.971,135.649 59.137 C 132.666 62.820,128.587 56.654,127.933 47.471 L 127.715 44.414 128.795 43.334 C 130.259 41.870,131.460 41.911,132.938 43.478 M252.803 43.605 C 255.640 46.587,257.350 57.459,255.278 59.334 C 253.094 61.311,250.298 58.996,248.831 53.999 C 246.268 45.266,248.594 39.180,252.803 43.605 " stroke="none" fill="#fff" fill-rule="evenodd"></path></g></svg>